<svg id="Layer_1" data-name="Layer 1" xmlns="http://www.w3.org/2000/svg" xmlns:xlink="http://www.w3.org/1999/xlink" viewBox="0 0 1920 1080"><defs><style>.cls-1{fill:none;}.cls-2{clip-path:url(#clip-path);}.cls-3{fill:#100023;}.cls-4{clip-path:url(#clip-path-2);}.cls-5{fill:#1d0028;}.cls-6{fill:#25003e;}.cls-7{fill:#ae9aff;}.cls-8{fill:#1b0030;}.cls-9{fill:#7f7cff;}.cls-10{fill:#5d28ff;}</style><clipPath id="clip-path"><rect class="cls-1" width="1920" height="1080"/></clipPath><clipPath id="clip-path-2"><rect class="cls-1" x="1.24" y="-161" width="1920.71" height="1280.47"/></clipPath></defs><title>hackathon</title><g class="cls-2"><rect class="cls-1" x="29.24" y="-122.44" width="1858.38" height="1238.92"/><rect class="cls-3" x="-1.57" y="-142.98" width="1920" height="1280"/><g class="cls-4"><path class="cls-5" d="M1281.55,989.71h0a8.56,8.56,0,0,1,0-12.07L1651,608.22a8.56,8.56,0,0,1,12.07,0h0a8.56,8.56,0,0,1,0,12.07L1293.63,989.71A8.56,8.56,0,0,1,1281.55,989.71Z"/><path class="cls-6" d="M939.05,1179.35h0a18,18,0,0,1,0-25.35l72.56-72.56a18,18,0,0,1,25.35,0h0a18,18,0,0,1,0,25.35l-72.56,72.56A18,18,0,0,1,939.05,1179.35Z"/><path class="cls-7" d="M1475.62,1188.08h0a8.56,8.56,0,0,1,0-12.07L1711.34,940.3a8.56,8.56,0,0,1,12.07,0h0a8.56,8.56,0,0,1,0,12.07L1487.7,1188.08A8.56,8.56,0,0,1,1475.62,1188.08Z"/><path class="cls-7" d="M1140.14,904.61h0a8.56,8.56,0,0,1,0-12.07l235.71-235.71a8.56,8.56,0,0,1,12.07,0h0a8.56,8.56,0,0,1,0,12.07L1152.21,904.61A8.56,8.56,0,0,1,1140.14,904.61Z"/><path class="cls-7" d="M955.39,1080.5h0a8.56,8.56,0,0,1,0-12.07l53.18-53.18a8.56,8.56,0,0,1,12.07,0h0a8.56,8.56,0,0,1,0,12.07l-53.18,53.18A8.56,8.56,0,0,1,955.39,1080.5Z"/><path class="cls-6" d="M1069.49,1045.28h0a19.69,19.69,0,0,1,0-27.77l174.45-174.45a19.69,19.69,0,0,1,27.77,0h0a19.69,19.69,0,0,1,0,27.77l-174.45,174.45A19.69,19.69,0,0,1,1069.49,1045.28Z"/><path class="cls-8" d="M1110.44,1188h0a50.86,50.86,0,0,1,0-71.71l268.73-268.73a50.86,50.86,0,0,1,71.71,0h0a50.86,50.86,0,0,1,0,71.71L1182.15,1188A50.86,50.86,0,0,1,1110.44,1188Z"/><path class="cls-9" d="M1497.44,1053.09h0a33,33,0,0,1,0-46.5l102-102a33,33,0,0,1,46.5,0h0a33,33,0,0,1,0,46.5l-102,102A33,33,0,0,1,1497.44,1053.09Z"/><path class="cls-5" d="M1567.76,1190.15h0a33,33,0,0,1,0-46.5l73-73a33,33,0,0,1,46.5,0h0a33,33,0,0,1,0,46.5l-73,73A33,33,0,0,1,1567.76,1190.15Z"/><path class="cls-6" d="M1222.9,1162.39h0a50.86,50.86,0,0,1,0-71.71l268.73-268.73a50.86,50.86,0,0,1,71.71,0h0a50.86,50.86,0,0,1,0,71.71l-268.73,268.73A50.86,50.86,0,0,1,1222.9,1162.39Z"/><path class="cls-8" d="M1394.93,1045.78h0a18,18,0,0,1,0-25.35l233.85-233.85a18,18,0,0,1,25.35,0h0a18,18,0,0,1,0,25.35l-233.85,233.85A18,18,0,0,1,1394.93,1045.78Z"/><path class="cls-10" d="M1616.35,934.12h0a12.66,12.66,0,0,1,0-17.86L1669,863.63a12.66,12.66,0,0,1,17.86,0h0a12.66,12.66,0,0,1,0,17.86l-52.64,52.64A12.66,12.66,0,0,1,1616.35,934.12Z"/><path class="cls-10" d="M1107.56,1048h0a12.66,12.66,0,0,1,0-17.86l52.64-52.64a12.66,12.66,0,0,1,17.86,0h0a12.66,12.66,0,0,1,0,17.86L1125.42,1048A12.66,12.66,0,0,1,1107.56,1048Z"/><path class="cls-8" d="M1329.86,852.09a7.35,7.35,0,0,0-10.37,0l-30.56,30.56A7.33,7.33,0,1,0,1299.29,893l30.56-30.56A7.35,7.35,0,0,0,1329.86,852.09Z"/><path class="cls-10" d="M1357.88,1027.87h0a3.85,3.85,0,0,1,0-5.43l274.35-274.35a3.85,3.85,0,0,1,5.43,0h0a3.85,3.85,0,0,1,0,5.43l-274.35,274.35A3.85,3.85,0,0,1,1357.88,1027.87Z"/><path class="cls-10" d="M1382.12,781.74h0a3.85,3.85,0,0,1,0-5.43l205-205a3.85,3.85,0,0,1,5.43,0h0a3.85,3.85,0,0,1,0,5.43l-205,205A3.85,3.85,0,0,1,1382.12,781.74Z"/><path class="cls-10" d="M1427.9,1222.88h0a3.85,3.85,0,0,1,0-5.43L1702.25,943.1a3.85,3.85,0,0,1,5.43,0h0a3.85,3.85,0,0,1,0,5.43l-274.35,274.35A3.85,3.85,0,0,1,1427.9,1222.88Z"/><path class="cls-10" d="M986.29,1035.31h0a3.85,3.85,0,0,1,0-5.43l68.24-68.24a3.85,3.85,0,0,1,5.43,0h0a3.85,3.85,0,0,1,0,5.43l-68.24,68.24A3.85,3.85,0,0,1,986.29,1035.31Z"/><path class="cls-6" d="M1460.93,1065.83h0a3.85,3.85,0,0,1,0-5.43l68.24-68.24a3.85,3.85,0,0,1,5.43,0h0a3.85,3.85,0,0,1,0,5.43l-68.24,68.24A3.85,3.85,0,0,1,1460.93,1065.83Z"/><path class="cls-6" d="M1394.84,689.41h0a3.85,3.85,0,0,1,0-5.43l68.24-68.24a3.85,3.85,0,0,1,5.43,0h0a3.85,3.85,0,0,1,0,5.43l-68.24,68.24A3.85,3.85,0,0,1,1394.84,689.41Z"/><path class="cls-10" d="M1234.6,881.95h0a3.85,3.85,0,0,1,0-5.43l68.24-68.24a3.85,3.85,0,0,1,5.43,0h0a3.85,3.85,0,0,1,0,5.43L1240,881.95A3.85,3.85,0,0,1,1234.6,881.95Z"/><path class="cls-6" d="M1306.62,959a7.13,7.13,0,0,0-10,0L1267,988.63a7.11,7.11,0,0,0,10,10l29.62-29.62A7.13,7.13,0,0,0,1306.62,959Z"/><path class="cls-7" d="M1569.23,636.57a8.43,8.43,0,0,0-11.89,0l-8.43,8.43a8.41,8.41,0,0,0,11.89,11.89l8.43-8.43A8.43,8.43,0,0,0,1569.23,636.57Z"/><path class="cls-9" d="M1153,827.18a8.43,8.43,0,0,0-11.89,0l-8.43,8.43a8.41,8.41,0,1,0,11.89,11.89l8.43-8.43A8.43,8.43,0,0,0,1153,827.18Z"/><path class="cls-9" d="M1357.44,810.66h0a33,33,0,0,1,0-46.5l102-102a33,33,0,0,1,46.5,0h0a33,33,0,0,1,0,46.5l-102,102A33,33,0,0,1,1357.44,810.66Z"/><path class="cls-6" d="M1362.6,835.81h0a3.85,3.85,0,0,1,0-5.43l115.92-115.92a3.85,3.85,0,0,1,5.43,0h0a3.85,3.85,0,0,1,0,5.43L1368,835.81A3.85,3.85,0,0,1,1362.6,835.81Z"/><path class="cls-9" d="M1303.43,1079a8.43,8.43,0,0,0-11.89,0l-8.43,8.43a8.41,8.41,0,0,0,11.89,11.89l8.43-8.43A8.43,8.43,0,0,0,1303.43,1079Z"/><path class="cls-5" d="M156.87,233.08h0a8.56,8.56,0,0,1,0-12.07l88.39-88.38a8.56,8.56,0,0,1,12.07,0h0a8.56,8.56,0,0,1,0,12.07l-88.38,88.39A8.56,8.56,0,0,1,156.87,233.08Z"/><path class="cls-6" d="M56.06,181h0a18,18,0,0,1,0-25.35l72.56-72.56a18,18,0,0,1,25.35,0h0a18,18,0,0,1,0,25.35L81.42,181A18,18,0,0,1,56.06,181Z"/><path class="cls-7" d="M592.64,189.76h0a8.56,8.56,0,0,1,0-12.07L828.35-58a8.56,8.56,0,0,1,12.07,0h0a8.56,8.56,0,0,1,0,12.07L604.71,189.76A8.56,8.56,0,0,1,592.64,189.76Z"/><path class="cls-7" d="M372.68,413.45h0a8.56,8.56,0,0,1,0-12.07L492.15,281.91a8.56,8.56,0,0,1,12.07,0h0a8.56,8.56,0,0,1,0,12.07L384.75,413.45A8.56,8.56,0,0,1,372.68,413.45Z"/><path class="cls-7" d="M72.4,82.18h0a8.56,8.56,0,0,1,0-12.07l53.18-53.18a8.56,8.56,0,0,1,12.07,0h0a8.56,8.56,0,0,1,0,12.07L84.47,82.18A8.56,8.56,0,0,1,72.4,82.18Z"/><path class="cls-6" d="M186.5,47h0a19.69,19.69,0,0,1,0-27.77L361-155.25a19.69,19.69,0,0,1,27.77,0h0a19.69,19.69,0,0,1,0,27.77L214.27,47A19.69,19.69,0,0,1,186.5,47Z"/><path class="cls-8" d="M227.45,189.68h0a50.86,50.86,0,0,1,0-71.71L496.17-150.76a50.86,50.86,0,0,1,71.71,0h0a50.86,50.86,0,0,1,0,71.71L299.16,189.68A50.86,50.86,0,0,1,227.45,189.68Z"/><path class="cls-9" d="M614.45,54.77h0a33,33,0,0,1,0-46.5l102-102a33,33,0,0,1,46.5,0h0a33,33,0,0,1,0,46.5l-102,102A33,33,0,0,1,614.45,54.77Z"/><path class="cls-5" d="M368.92,229.79h0a33,33,0,0,1,0-46.5l73-73a33,33,0,0,1,46.5,0h0a33,33,0,0,1,0,46.5l-73,73A33,33,0,0,1,368.92,229.79Z"/><path class="cls-5" d="M684.77,191.83h0a33,33,0,0,1,0-46.5l73-73a33,33,0,0,1,46.5,0h0a33,33,0,0,1,0,46.5l-73,73A33,33,0,0,1,684.77,191.83Z"/><path class="cls-10" d="M396.92,305.58h0a19.69,19.69,0,0,1,0-27.77L571.37,103.36a19.69,19.69,0,0,1,27.77,0h0a19.69,19.69,0,0,1,0,27.77L424.69,305.58A19.69,19.69,0,0,1,396.92,305.58Z"/><path class="cls-6" d="M339.91,164.07h0a50.86,50.86,0,0,1,0-71.71L608.64-176.37a50.86,50.86,0,0,1,71.71,0h0a50.86,50.86,0,0,1,0,71.71L411.63,164.07A50.86,50.86,0,0,1,339.91,164.07Z"/><path class="cls-8" d="M511.94,47.46h0a18,18,0,0,1,0-25.35L745.79-211.74a18,18,0,0,1,25.35,0h0a18,18,0,0,1,0,25.35L537.29,47.46A18,18,0,0,1,511.94,47.46Z"/><path class="cls-10" d="M224.57,49.69h0a12.66,12.66,0,0,1,0-17.86l52.64-52.64a12.66,12.66,0,0,1,17.86,0h0a12.66,12.66,0,0,1,0,17.86L242.43,49.69A12.66,12.66,0,0,1,224.57,49.69Z"/><path class="cls-9" d="M523.33,93A7.35,7.35,0,0,0,513,93l-30.56,30.56a7.33,7.33,0,0,0,10.37,10.37l30.56-30.56A7.35,7.35,0,0,0,523.33,93Z"/><path class="cls-10" d="M474.89,29.55h0a3.85,3.85,0,0,1,0-5.43L749.23-250.23a3.85,3.85,0,0,1,5.43,0h0a3.85,3.85,0,0,1,0,5.43L480.32,29.55A3.85,3.85,0,0,1,474.89,29.55Z"/><path class="cls-10" d="M544.91,224.56h0a3.85,3.85,0,0,1,0-5.43L819.26-55.22a3.85,3.85,0,0,1,5.43,0h0a3.85,3.85,0,0,1,0,5.43L550.34,224.56A3.85,3.85,0,0,1,544.91,224.56Z"/><path class="cls-10" d="M304.42,206.87h0a3.85,3.85,0,0,1,0-5.43l68.24-68.24a3.85,3.85,0,0,1,5.43,0h0a3.85,3.85,0,0,1,0,5.43l-68.24,68.24A3.85,3.85,0,0,1,304.42,206.87Z"/><path class="cls-10" d="M103.3,37h0a3.85,3.85,0,0,1,0-5.43l68.24-68.24a3.85,3.85,0,0,1,5.43,0h0a3.85,3.85,0,0,1,0,5.43L108.73,37A3.85,3.85,0,0,1,103.3,37Z"/><path class="cls-6" d="M577.94,67.51h0a3.85,3.85,0,0,1,0-5.43L646.18-6.17a3.85,3.85,0,0,1,5.43,0h0a3.85,3.85,0,0,1,0,5.43L583.37,67.51A3.85,3.85,0,0,1,577.94,67.51Z"/><path class="cls-9" d="M215.69,93.62a7.13,7.13,0,0,0-10,0L176,123.24a7.11,7.11,0,0,0,10,10l29.62-29.62A7.13,7.13,0,0,0,215.69,93.62Z"/><path class="cls-6" d="M423.63-39.31a7.13,7.13,0,0,0-10,0L384-9.69a7.13,7.13,0,0,0,0,10,7.13,7.13,0,0,0,10,0l29.62-29.62A7.13,7.13,0,0,0,423.63-39.31Z"/><path class="cls-9" d="M653.45,183.13h0a12.66,12.66,0,0,1,0-17.86l52.64-52.64a12.66,12.66,0,0,1,17.86,0h0a12.66,12.66,0,0,1,0,17.86l-52.64,52.64A12.66,12.66,0,0,1,653.45,183.13Z"/><path class="cls-9" d="M420.44,80.69a8.43,8.43,0,0,0-11.89,0l-8.43,8.43A8.41,8.41,0,0,0,412,101l8.43-8.43A8.43,8.43,0,0,0,420.44,80.69Z"/><path class="cls-8" d="M615,93.3a8.43,8.43,0,0,0-11.89,0l-8.43,8.43a8.41,8.41,0,1,0,11.89,11.89l8.43-8.43A8.43,8.43,0,0,0,615,93.3Z"/><path class="cls-7" d="M823.4,1087.64h0a8.56,8.56,0,0,1,0-12.07l235.71-235.71a8.56,8.56,0,0,1,12.07,0h0a8.56,8.56,0,0,1,0,12.07L835.48,1087.64A8.56,8.56,0,0,1,823.4,1087.64Z"/><path class="cls-10" d="M846.94,946.74h0a12.66,12.66,0,0,1,0-17.86l52.64-52.64a12.66,12.66,0,0,1,17.86,0h0a12.66,12.66,0,0,1,0,17.86l-52.64,52.64A12.66,12.66,0,0,1,846.94,946.74Z"/><path class="cls-8" d="M672.47,849.48a7.35,7.35,0,0,0-10.37,0L631.54,880a7.33,7.33,0,0,0,10.37,10.37l30.56-30.56A7.35,7.35,0,0,0,672.47,849.48Z"/><path class="cls-6" d="M691.52,1078.44h0a3.85,3.85,0,0,1,0-5.43l68.24-68.24a3.85,3.85,0,0,1,5.43,0h0a3.85,3.85,0,0,1,0,5.43L697,1078.44A3.85,3.85,0,0,1,691.52,1078.44Z"/><path class="cls-9" d="M1172.2,727.14a7.13,7.13,0,0,0-10,0l-29.62,29.62a7.11,7.11,0,0,0,10,10l29.62-29.62A7.13,7.13,0,0,0,1172.2,727.14Z"/><path class="cls-6" d="M649.23,956.4a7.13,7.13,0,0,0-10,0L609.57,986a7.11,7.11,0,0,0,10,10l29.62-29.62A7.13,7.13,0,0,0,649.23,956.4Z"/><path class="cls-7" d="M998.17,749.42a8.43,8.43,0,0,0-11.89,0l-8.43,8.43a8.41,8.41,0,0,0,11.89,11.89l8.43-8.43A8.43,8.43,0,0,0,998.17,749.42Z"/><path class="cls-9" d="M836.24,1010.21a8.43,8.43,0,0,0-11.89,0l-8.43,8.43a8.41,8.41,0,0,0,11.89,11.89l8.43-8.43A8.43,8.43,0,0,0,836.24,1010.21Z"/><path class="cls-6" d="M740.18,908h0a3.85,3.85,0,0,1,0-5.43L856.1,786.66a3.85,3.85,0,0,1,5.43,0h0a3.85,3.85,0,0,1,0,5.43L745.61,908A3.85,3.85,0,0,1,740.18,908Z"/><path class="cls-9" d="M646,1076.39a8.43,8.43,0,0,0-11.89,0l-8.43,8.43a8.41,8.41,0,0,0,11.89,11.89l8.43-8.43A8.43,8.43,0,0,0,646,1076.39Z"/><path class="cls-7" d="M10.25,17.87h0a8.56,8.56,0,0,1,0-12.07L246-229.91a8.56,8.56,0,0,1,12.07,0h0a8.56,8.56,0,0,1,0,12.07L22.32,17.87A8.56,8.56,0,0,1,10.25,17.87Z"/><path class="cls-7" d="M1911.94,751.45h0a8.56,8.56,0,0,1,0-12.07l235.71-235.71a8.56,8.56,0,0,1,12.07,0h0a8.56,8.56,0,0,1,0,12.07L1924,751.45A8.56,8.56,0,0,1,1911.94,751.45Z"/><path class="cls-8" d="M1789.13,526.89a10.8,10.8,0,0,0-15,0l-44.2,43.25a10.25,10.25,0,0,0,0,14.67,10.8,10.8,0,0,0,15,0l44.2-43.25A10.25,10.25,0,0,0,1789.13,526.89Z"/><path class="cls-10" d="M1618.56,866.38h0a3.85,3.85,0,0,1,0-5.43l68.24-68.24a3.85,3.85,0,0,1,5.43,0h0a3.85,3.85,0,0,1,0,5.43L1624,866.38A3.85,3.85,0,0,1,1618.56,866.38Z"/><path class="cls-10" d="M1780.06,742.25h0a3.85,3.85,0,0,1,0-5.43l68.24-68.24a3.85,3.85,0,0,1,5.43,0h0a3.85,3.85,0,0,1,0,5.43l-68.24,68.24A3.85,3.85,0,0,1,1780.06,742.25Z"/><path class="cls-6" d="M1783,634.5a7.13,7.13,0,0,0-10,0l-29.62,29.62a7.11,7.11,0,0,0,10,10L1783,644.55A7.13,7.13,0,0,0,1783,634.5Z"/><path class="cls-9" d="M1924.77,674a8.43,8.43,0,0,0-11.89,0l-8.43,8.43a8.41,8.41,0,0,0,11.89,11.89l8.43-8.43A8.43,8.43,0,0,0,1924.77,674Z"/><path class="cls-6" d="M1828.72,571.82h0a3.85,3.85,0,0,1,0-5.43l115.92-115.92a3.85,3.85,0,0,1,5.43,0h0a3.85,3.85,0,0,1,0,5.43L1834.15,571.82A3.85,3.85,0,0,1,1828.72,571.82Z"/><path class="cls-9" d="M1731.57,732.3a8.43,8.43,0,0,0-11.89,0l-8.43,8.43a8.41,8.41,0,0,0,11.89,11.89l8.43-8.43A8.43,8.43,0,0,0,1731.57,732.3Z"/><path class="cls-9" d="M1795.21,810.09a8.43,8.43,0,0,0-11.89,0l-8.43,8.43a8.41,8.41,0,0,0,11.89,11.89l8.43-8.43A8.43,8.43,0,0,0,1795.21,810.09Z"/><path class="cls-7" d="M88.51,745.75h0a8.56,8.56,0,0,1,0,12.07L-147.2,993.54a8.56,8.56,0,0,1-12.07,0h0a8.56,8.56,0,0,1,0-12.07L76.44,745.75A8.56,8.56,0,0,1,88.51,745.75Z"/><path class="cls-10" d="M65,886.66h0a12.66,12.66,0,0,1,0,17.86L12.34,957.15a12.66,12.66,0,0,1-17.86,0h0a12.66,12.66,0,0,1,0-17.86l52.64-52.64A12.66,12.66,0,0,1,65,886.66Z"/><path class="cls-8" d="M211.32,970.31a10.8,10.8,0,0,0,15,0l44.2-43.25a10.25,10.25,0,0,0,0-14.67,10.8,10.8,0,0,0-15,0l-44.2,43.25A10.25,10.25,0,0,0,211.32,970.31Z"/><path class="cls-10" d="M381.9,630.82h0a3.85,3.85,0,0,1,0,5.43L313.66,704.5a3.85,3.85,0,0,1-5.43,0h0a3.85,3.85,0,0,1,0-5.43l68.24-68.24A3.85,3.85,0,0,1,381.9,630.82Z"/><path class="cls-10" d="M220.4,755h0a3.85,3.85,0,0,1,0,5.43l-68.24,68.24a3.85,3.85,0,0,1-5.43,0h0a3.85,3.85,0,0,1,0-5.43L215,755A3.85,3.85,0,0,1,220.4,755Z"/><path class="cls-6" d="M217.48,862.7a7.13,7.13,0,0,0,10,0l29.62-29.62a7.11,7.11,0,0,0-10-10l-29.62,29.62A7.13,7.13,0,0,0,217.48,862.7Z"/><path class="cls-9" d="M75.68,823.19a8.43,8.43,0,0,0,11.89,0L96,814.75a8.41,8.41,0,0,0-11.89-11.89l-8.43,8.43A8.43,8.43,0,0,0,75.68,823.19Z"/><path class="cls-6" d="M171.74,925.38h0a3.85,3.85,0,0,1,0,5.43L55.82,1046.73a3.85,3.85,0,0,1-5.43,0h0a3.85,3.85,0,0,1,0-5.43L166.3,925.38A3.85,3.85,0,0,1,171.74,925.38Z"/><path class="cls-9" d="M268.88,764.9a8.43,8.43,0,0,0,11.89,0l8.43-8.43a8.41,8.41,0,1,0-11.89-11.89L268.88,753A8.43,8.43,0,0,0,268.88,764.9Z"/><path class="cls-9" d="M205.24,687.11a8.43,8.43,0,0,0,11.89,0l8.43-8.43a8.41,8.41,0,1,0-11.89-11.89l-8.43,8.43A8.43,8.43,0,0,0,205.24,687.11Z"/><path class="cls-7" d="M1920.73,117.15h0a8.56,8.56,0,0,1,0-12.07l235.71-235.71a8.56,8.56,0,0,1,12.07,0h0a8.56,8.56,0,0,1,0,12.07L1932.8,117.15A8.56,8.56,0,0,1,1920.73,117.15Z"/><path class="cls-10" d="M1627.34,232.08h0a3.85,3.85,0,0,1,0-5.43l68.24-68.24a3.85,3.85,0,0,1,5.43,0h0a3.85,3.85,0,0,1,0,5.43l-68.24,68.24A3.85,3.85,0,0,1,1627.34,232.08Z"/><path class="cls-10" d="M1788.84,107.95h0a3.85,3.85,0,0,1,0-5.43l68.24-68.24a3.85,3.85,0,0,1,5.43,0h0a3.85,3.85,0,0,1,0,5.43l-68.24,68.24A3.85,3.85,0,0,1,1788.84,107.95Z"/><path class="cls-6" d="M1791.77.2a7.13,7.13,0,0,0-10,0L1752.1,29.82a7.11,7.11,0,0,0,10,10l29.62-29.62A7.13,7.13,0,0,0,1791.77.2Z"/><path class="cls-9" d="M1933.56,39.71a8.43,8.43,0,0,0-11.89,0l-8.43,8.43A8.41,8.41,0,1,0,1925.13,60l8.43-8.43A8.43,8.43,0,0,0,1933.56,39.71Z"/><path class="cls-9" d="M1740.36,98a8.43,8.43,0,0,0-11.89,0l-8.43,8.43a8.41,8.41,0,1,0,11.89,11.89l8.43-8.43A8.43,8.43,0,0,0,1740.36,98Z"/><path class="cls-9" d="M1804,175.79a8.43,8.43,0,0,0-11.89,0l-8.43,8.43a8.41,8.41,0,1,0,11.89,11.89l8.43-8.43A8.43,8.43,0,0,0,1804,175.79Z"/><path class="cls-7" d="M1130.78,63h0a8.56,8.56,0,0,1,0-12.07L1366.5-184.8a8.56,8.56,0,0,1,12.07,0h0a8.56,8.56,0,0,1,0,12.07L1142.86,63A8.56,8.56,0,0,1,1130.78,63Z"/><path class="cls-7" d="M946,238.87h0a8.56,8.56,0,0,1,0-12.07l53.18-53.18a8.56,8.56,0,0,1,12.07,0h0a8.56,8.56,0,0,1,0,12.07L958.1,238.87A8.56,8.56,0,0,1,946,238.87Z"/><path class="cls-10" d="M837.4,177.92h0a3.85,3.85,0,0,1,0-5.43l68.24-68.24a3.85,3.85,0,0,1,5.43,0h0a3.85,3.85,0,0,1,0,5.43l-68.24,68.24A3.85,3.85,0,0,1,837.4,177.92Z"/><path class="cls-6" d="M998.9,53.79h0a3.85,3.85,0,0,1,0-5.43l68.24-68.24a3.85,3.85,0,0,1,5.43,0h0a3.85,3.85,0,0,1,0,5.43l-68.24,68.24A3.85,3.85,0,0,1,998.9,53.79Z"/><path class="cls-9" d="M1143.61-14.44a8.43,8.43,0,0,0-11.89,0L1123.29-6a8.43,8.43,0,0,0,0,11.89,8.43,8.43,0,0,0,11.89,0l8.43-8.43A8.43,8.43,0,0,0,1143.61-14.44Z"/><path class="cls-9" d="M953.42,51.74a8.43,8.43,0,0,0-11.89,0l-8.43,8.43A8.41,8.41,0,0,0,945,72.06l8.43-8.43A8.43,8.43,0,0,0,953.42,51.74Z"/><path class="cls-8" d="M1036,79.58a8.43,8.43,0,0,0-11.89,0L1015.66,88a8.41,8.41,0,0,0,11.89,11.89l8.43-8.43A8.43,8.43,0,0,0,1036,79.58Z"/><path class="cls-8" d="M1855.07,845a7.35,7.35,0,0,0-10.37,0l-30.56,30.56a7.33,7.33,0,0,0,10.37,10.37l30.56-30.56A7.35,7.35,0,0,0,1855.07,845Z"/><path class="cls-6" d="M1874.11,1073.93h0a3.85,3.85,0,0,1,0-5.43l68.24-68.24a3.85,3.85,0,0,1,5.43,0h0a3.85,3.85,0,0,1,0,5.43l-68.24,68.24A3.85,3.85,0,0,1,1874.11,1073.93Z"/><path class="cls-6" d="M1831.83,951.89a7.13,7.13,0,0,0-10,0l-29.62,29.62a7.11,7.11,0,1,0,10,10l29.62-29.62A7.13,7.13,0,0,0,1831.83,951.89Z"/><path class="cls-9" d="M1828.64,1071.89a8.43,8.43,0,0,0-11.89,0l-8.43,8.43a8.41,8.41,0,0,0,11.89,11.89l8.43-8.43A8.43,8.43,0,0,0,1828.64,1071.89Z"/><path class="cls-10" d="M1402.62,73.22h0a12.66,12.66,0,0,1,0,17.86L1350,143.72a12.66,12.66,0,0,1-17.86,0h0a12.66,12.66,0,0,1,0-17.86l52.64-52.64A12.66,12.66,0,0,1,1402.62,73.22Z"/><path class="cls-8" d="M1580.85,180.05a7.35,7.35,0,0,0,10.37,0l30.56-30.56a7.33,7.33,0,0,0-10.37-10.37l-30.56,30.56A7.35,7.35,0,0,0,1580.85,180.05Z"/><path class="cls-6" d="M1554.65-73.09h0a3.85,3.85,0,0,1,0,5.43L1486.41.58a3.85,3.85,0,0,1-5.43,0h0a3.85,3.85,0,0,1,0-5.43l68.24-68.24A3.85,3.85,0,0,1,1554.65-73.09Z"/><path class="cls-9" d="M1228.12,140.23a7.13,7.13,0,0,0,10,0l29.62-29.62a7.11,7.11,0,1,0-10-10l-29.62,29.62A7.13,7.13,0,0,0,1228.12,140.23Z"/><path class="cls-6" d="M1604.09,73.13a7.13,7.13,0,0,0,10,0l29.62-29.62a7.11,7.11,0,1,0-10-10l-29.62,29.62A7.13,7.13,0,0,0,1604.09,73.13Z"/><path class="cls-6" d="M1513.14,121.52h0a3.85,3.85,0,0,1,0,5.43L1397.22,242.87a3.85,3.85,0,0,1-5.43,0h0a3.85,3.85,0,0,1,0-5.43l115.92-115.92A3.85,3.85,0,0,1,1513.14,121.52Z"/><path class="cls-10" d="M215,1073.62h0a12.66,12.66,0,0,1,0,17.86l-52.64,52.64a12.66,12.66,0,0,1-17.86,0h0a12.66,12.66,0,0,1,0-17.86l52.64-52.64A12.66,12.66,0,0,1,215,1073.62Z"/><path class="cls-10" d="M535.68,827.36h0a3.85,3.85,0,0,1,0,5.43L467.43,901a3.85,3.85,0,0,1-5.43,0h0a3.85,3.85,0,0,1,0-5.43l68.24-68.24A3.85,3.85,0,0,1,535.68,827.36Z"/><path class="cls-6" d="M367,927.31h0a3.85,3.85,0,0,1,0,5.43L298.78,1001a3.85,3.85,0,0,1-5.43,0h0a3.85,3.85,0,0,1,0-5.43l68.24-68.24A3.85,3.85,0,0,1,367,927.31Z"/><path class="cls-6" d="M416.46,1073.53a7.13,7.13,0,0,0,10,0l29.62-29.62a7.11,7.11,0,0,0-10-10l-29.62,29.62A7.13,7.13,0,0,0,416.46,1073.53Z"/><path class="cls-9" d="M157,973.2a8.43,8.43,0,0,0,11.89,0l8.43-8.43a8.41,8.41,0,1,0-11.89-11.89L157,961.31A8.43,8.43,0,0,0,157,973.2Z"/><path class="cls-9" d="M419.65,953.54a8.43,8.43,0,0,0,11.89,0L440,945.1a8.41,8.41,0,0,0-11.89-11.89l-8.43,8.43A8.43,8.43,0,0,0,419.65,953.54Z"/><path class="cls-8" d="M316.47,866.56a8.43,8.43,0,0,0,11.89,0l8.43-8.43a8.41,8.41,0,1,0-11.89-11.89l-8.43,8.43A8.43,8.43,0,0,0,316.47,866.56Z"/></g><rect class="cls-1" x="1" y="23.55" width="1920" height="1080"/></g></svg>