<svg xmlns="http://www.w3.org/2000/svg" viewBox="0 0 763 68.14"><defs><style>.cls-1{fill:#715bbc;}</style></defs><title>arrow</title><g id="Layer_2" data-name="Layer 2"><g id="Layer_1-2" data-name="Layer 1"><path class="cls-1" d="M761.48,31.14C752.86,21.47,744.29,11.72,736,1.69c-2.53-3.05-3.58-1.39-5.46.53-2.22,2.25-1.94,3.66.08,5.87,5.78,6.32,11.39,12.87,18,20.44H0v10H705.69a8.63,8.63,0,0,0,1.53.09c2.44,0,4.89-.07,7.33-.09h35c-6.94,7.92-12.86,14.82-19,21.51-2,2.17-2.44,3.59-.13,5.86,1.86,1.83,2.9,3.69,5.47.59,8.31-10,16.88-19.78,25.49-29.46C763.49,34.73,763.54,33.45,761.48,31.14Z"/></g></g></svg>